<?xml version="1.0" standalone="no"?>
<!DOCTYPE svg PUBLIC "-//W3C//DTD SVG 20010904//EN"
 "http://www.w3.org/TR/2001/REC-SVG-20010904/DTD/svg10.dtd">
<svg version="1.0" xmlns="http://www.w3.org/2000/svg"
 width="1024.000000pt" height="1024.000000pt" viewBox="0 0 1024.000000 1024.000000"
 preserveAspectRatio="xMidYMid meet">

<g transform="translate(0.000000,1024.000000) scale(0.100000,-0.100000)"
fill="#141414" stroke="none">
<path d="M0 5120 l0 -5120 5120 0 5120 0 0 5120 0 5120 -5120 0 -5120 0 0
-5120z m8234 1931 c3 -57 6 -220 6 -363 l0 -258 -523 0 -524 0 -6 -197 c-3
-109 -3 -276 0 -370 l6 -173 -390 0 -390 0 -6 257 c-4 141 -7 306 -7 368 l0
111 -138 0 c-154 -1 -163 2 -183 62 -27 84 -228 341 -342 440 -65 56 -261 192
-277 192 -5 0 -14 8 -19 18 -9 16 61 17 1389 17 l1397 0 7 -104z m-3550 88
c125 -15 327 -74 465 -137 412 -189 725 -547 864 -992 54 -171 91 -310 84
-316 -3 -3 -182 -5 -398 -5 l-393 1 -22 57 c-36 99 -132 265 -192 335 -99 116
-272 230 -429 282 -147 49 -225 58 -557 63 l-309 5 6 -47 c4 -26 7 -686 7
-1466 l0 -1419 138 1 c575 2 725 30 907 166 109 81 216 186 240 233 9 19 24
43 32 52 40 45 109 185 145 292 42 128 41 119 64 559 l6 127 395 0 395 0 -4
-277 c-5 -267 -6 -284 -38 -433 -38 -183 -72 -282 -150 -448 -93 -194 -261
-422 -401 -542 -219 -188 -517 -338 -794 -397 l-130 -27 -786 -4 -787 -3 -6
36 c-4 19 -6 998 -5 2175 l1 2140 787 -1 c432 0 822 -5 865 -10z m2817 -1835
c-1 -71 -5 -131 -8 -134 -2 -3 -613 -5 -1356 -5 l-1352 0 -3 132 -3 132 113 3
c62 2 675 3 1362 2 l1249 0 -2 -130z m-319 -1441 l-3 -1063 -383 0 c-341 0
-385 2 -390 16 -8 21 -8 2028 1 2078 l6 39 251 -5 c138 -3 310 -2 381 1 72 3
132 4 135 1 3 -3 4 -483 2 -1067z"/>
</g>
</svg>
